<svg xmlns="http://www.w3.org/2000/svg" xmlns:xlink="http://www.w3.org/1999/xlink" width="500" zoomAndPan="magnify" viewBox="0 0 375 374.999991" height="500" preserveAspectRatio="xMidYMid meet" version="1.0"><path fill="#ffffff" d="M 0.0078125 219.125 C 0.199219 235.1875 3.285156 237.140625 5.058594 236.726562 L 4.75 220.566406 C 4.550781 209.964844 4.527344 207.550781 11.476562 203.167969 C 38.273438 186.03125 89.097656 186.535156 119.082031 186.1875 C 150.332031 185.828125 199.804688 184.792969 271.460938 181.980469 C 285.871094 181.414062 301.097656 177.695312 307.96875 163.457031 C 296.675781 173.285156 283.402344 173.503906 273.449219 173.804688 C 252.585938 174.4375 201.324219 175.695312 119.054688 178.183594 C 81.890625 179.308594 29.558594 179.417969 -0.0117188 203.527344 Z M 0.0078125 219.125 " fill-opacity="1" fill-rule="evenodd"/><path fill="#ffffff" d="M 89.039062 198.398438 C 91.554688 200.613281 94.660156 202.960938 94.578125 205.4375 C 94.578125 205.4375 134.488281 203.046875 214.3125 198.265625 C 214.3125 198.265625 171.546875 198.308594 89.039062 198.398438 " fill-opacity="1" fill-rule="evenodd"/><path fill="#ffffff" d="M 35.824219 219.34375 C 51.949219 185.539062 99.910156 185.976562 113.835938 220.738281 C 113.898438 221.230469 113.199219 221.722656 112.644531 220.773438 C 99.382812 198.695312 51.347656 198.453125 37.046875 219.753906 C 36.503906 220.9375 35.097656 221.226562 35.824219 219.34375 " fill-opacity="1" fill-rule="evenodd"/><path fill="#ffffff" d="M 165.75 173.476562 C 171.445312 172.972656 173.554688 172.894531 173.792969 167.550781 C 173.960938 163.878906 173.863281 160.671875 170.34375 159.171875 C 162.058594 158.796875 155.339844 161.074219 150.1875 166 C 146.496094 169.527344 146.859375 172.652344 151.511719 173.347656 L 142.101562 183.046875 C 148.796875 183.355469 152.144531 183.511719 152.144531 183.511719 C 155.53125 177.140625 156.8125 174.273438 156.8125 174.273438 C 155.566406 174.058594 154.628906 173.800781 153.722656 173.488281 Z M 165.75 173.476562 " fill-opacity="1" fill-rule="evenodd"/><path fill="#ffffff" d="M 3.035156 219.6875 C 2.609375 215.246094 1.839844 215.53125 3.015625 212.257812 C 17.390625 212.242188 25.71875 208.089844 25.71875 208.089844 C 21.585938 213.710938 16.546875 217.574219 10.601562 219.679688 C 5.558594 219.683594 3.035156 219.6875 3.035156 219.6875 " fill-opacity="1" fill-rule="evenodd"/><path fill="#ffffff" d="M 296.914062 214.027344 C 313.039062 180.222656 361 180.664062 374.925781 215.425781 C 374.988281 215.917969 374.289062 216.410156 373.734375 215.460938 C 360.472656 193.382812 312.441406 193.144531 298.136719 214.441406 C 297.59375 215.628906 296.1875 215.914062 296.914062 214.027344 " fill-opacity="1" fill-rule="evenodd"/><path fill="#ffffff" d="M 124.339844 167.484375 C 124.339844 167.484375 148.738281 142.34375 187.734375 140.105469 C 226.734375 137.867188 261.691406 146.550781 317.367188 144.074219 C 338.632812 143.035156 348.804688 141.484375 348.804688 141.484375 C 348.804688 141.484375 308.265625 155.269531 196.097656 145.035156 C 176.460938 143.625 157.554688 148.308594 124.339844 167.484375 Z M 124.339844 167.484375 " fill-opacity="1" fill-rule="evenodd"/></svg>