<svg xmlns="http://www.w3.org/2000/svg" xmlns:xlink="http://www.w3.org/1999/xlink" width="500" zoomAndPan="magnify" viewBox="0 0 375 374.999991" height="500" preserveAspectRatio="xMidYMid meet" version="1.0"><defs><clipPath id="9eb7508bec"><path d="M 49 7 L 321.75 7 L 321.75 373 L 49 373 Z M 49 7 " clip-rule="nonzero"/></clipPath><clipPath id="e7ffa53a7e"><path d="M 147.425781 231.621094 L 221 231.621094 L 221 306.925781 L 147.425781 306.925781 Z M 147.425781 231.621094 " clip-rule="nonzero"/></clipPath><clipPath id="983724f55e"><path d="M 220.875 258.148438 C 220.875 281.773438 218.175781 287.851562 214.574219 292.425781 C 210.976562 297 205.726562 301.125 200.476562 303.523438 C 195.148438 305.851562 188.625 307.050781 182.773438 306.75 C 177 306.375 170.625 304.425781 165.675781 301.425781 C 160.648438 298.351562 156 293.699219 153 288.675781 C 149.925781 283.726562 147.976562 277.351562 147.601562 271.574219 C 147.300781 265.800781 148.5 259.199219 150.898438 253.875 C 153.226562 248.625 157.351562 243.375 161.925781 239.773438 C 166.5 236.175781 172.574219 233.476562 178.273438 232.425781 C 184.050781 231.375 190.648438 231.75 196.199219 233.476562 C 201.75 235.199219 211.574219 242.773438 211.574219 242.773438 " clip-rule="nonzero"/></clipPath><clipPath id="225f3d9056"><path d="M 0.425781 0.621094 L 74 0.621094 L 74 75.925781 L 0.425781 75.925781 Z M 0.425781 0.621094 " clip-rule="nonzero"/></clipPath><clipPath id="28f2940ac7"><path d="M 73.875 27.148438 C 73.875 50.773438 71.175781 56.851562 67.574219 61.425781 C 63.976562 66 58.726562 70.125 53.476562 72.523438 C 48.148438 74.851562 41.625 76.050781 35.773438 75.75 C 30 75.375 23.625 73.425781 18.675781 70.425781 C 13.648438 67.351562 9 62.699219 6 57.675781 C 2.925781 52.726562 0.976562 46.351562 0.601562 40.574219 C 0.300781 34.800781 1.5 28.199219 3.898438 22.875 C 6.226562 17.625 10.351562 12.375 14.925781 8.773438 C 19.5 5.175781 25.574219 2.476562 31.273438 1.425781 C 37.050781 0.375 43.648438 0.75 49.199219 2.476562 C 54.75 4.199219 64.574219 11.773438 64.574219 11.773438 " clip-rule="nonzero"/></clipPath><clipPath id="d0cbd983ce"><rect x="0" width="74" y="0" height="76"/></clipPath><clipPath id="e6615eac89"><path d="M 141.167969 221.640625 L 224.910156 221.640625 L 224.910156 308.523438 L 141.167969 308.523438 Z M 141.167969 221.640625 " clip-rule="nonzero"/></clipPath><clipPath id="271bedd661"><path d="M 141.375 261.675781 C 141.449219 261.675781 142.050781 258.75 142.425781 257.25 C 142.726562 255.75 143.398438 252.824219 143.398438 252.824219 C 143.398438 252.75 144.75 250.050781 145.425781 248.699219 C 146.101562 247.351562 147.449219 244.726562 147.449219 244.648438 C 147.523438 244.574219 148.800781 242.851562 149.550781 241.875 C 150.449219 240.675781 151.273438 239.398438 152.476562 237.976562 C 154.125 235.949219 156.300781 233.175781 158.550781 231.226562 C 160.800781 229.199219 163.351562 227.476562 166.050781 226.050781 C 168.675781 224.699219 171.601562 223.648438 174.523438 222.898438 C 177.449219 222.226562 180.523438 221.851562 183.601562 221.851562 C 186.601562 221.925781 189.675781 222.300781 192.601562 223.050781 C 195.449219 223.800781 198.375 224.925781 201 226.351562 C 203.699219 227.699219 206.773438 230.023438 208.5 231.523438 C 209.476562 232.425781 209.925781 233.398438 210.601562 233.925781 C 211.050781 234.375 211.574219 234.523438 211.949219 234.898438 C 212.324219 235.199219 212.550781 235.726562 212.773438 235.875 C 212.925781 235.949219 213.074219 235.875 213.148438 235.949219 C 213.226562 236.023438 213.148438 236.25 213.148438 236.398438 C 213.226562 236.476562 213.226562 236.476562 213.300781 236.550781 C 213.523438 236.851562 214.574219 237.523438 214.949219 237.976562 C 215.25 238.273438 215.175781 238.5 215.550781 238.800781 C 216.449219 239.625 220.875 240.148438 222 241.949219 C 223.199219 243.824219 221.851562 248.175781 222.074219 250.199219 C 222.226562 251.398438 222.449219 252 222.75 253.050781 C 223.125 254.324219 223.949219 255.976562 224.175781 257.101562 C 224.324219 257.925781 224.101562 258.601562 224.175781 259.273438 C 224.25 259.949219 224.625 260.550781 224.699219 261.375 C 224.773438 262.574219 224.324219 264.226562 224.25 265.648438 C 224.25 267.074219 224.550781 268.800781 224.324219 270 C 224.25 270.824219 223.800781 271.351562 223.648438 272.023438 C 223.5 272.699219 223.648438 273.449219 223.5 274.199219 C 223.273438 274.949219 222.601562 275.476562 222.375 276.675781 C 221.851562 279.226562 224.550781 286.199219 222.523438 289.648438 C 220.199219 293.625 209.625 295.425781 207.601562 298.050781 C 206.625 299.25 207.375 300.898438 206.550781 301.5 C 205.574219 302.25 203.324219 301.050781 201.300781 301.574219 C 198 302.476562 192.300781 308.25 189.226562 308.324219 C 187.425781 308.398438 186 306.226562 184.875 306.148438 C 184.125 306.148438 183.75 307.050781 183 306.976562 C 181.648438 306.824219 179.25 303.675781 177.75 303.148438 C 176.851562 302.773438 176.25 303 175.351562 302.925781 C 174.074219 302.773438 170.851562 302.476562 170.773438 302.476562 C 170.773438 302.398438 170.101562 302.101562 169.5 302.023438 C 168.375 301.800781 165.300781 302.699219 164.101562 302.023438 C 163.273438 301.574219 162.976562 299.851562 162.601562 299.550781 C 162.449219 299.398438 162.226562 299.398438 162.226562 299.398438 C 162.148438 299.324219 159.675781 297.675781 158.398438 296.851562 C 157.125 296.023438 154.648438 294.375 154.574219 294.375 C 154.5 294.300781 152.476562 292.050781 151.5 291 C 150.601562 290.023438 149.851562 288.976562 149.023438 288.375 C 148.351562 287.851562 147.148438 287.851562 146.851562 287.25 C 146.476562 286.726562 147.074219 285.675781 147 285.074219 C 146.851562 284.550781 146.476562 284.25 146.175781 283.648438 C 145.648438 282.675781 144 279.675781 144 279.675781 C 143.925781 279.601562 143.175781 276.675781 142.800781 275.25 C 142.425781 273.75 141.601562 270.898438 141.601562 270.824219 C 141.601562 270.75 141.523438 267.824219 141.523438 266.25 C 141.449219 264.75 141.375 261.675781 141.375 261.675781 " clip-rule="nonzero"/></clipPath><clipPath id="8ffdd72f0b"><path d="M 0.359375 0.761719 L 83.878906 0.761719 L 83.878906 87.398438 L 0.359375 87.398438 Z M 0.359375 0.761719 " clip-rule="nonzero"/></clipPath><clipPath id="c4ffe20b22"><path d="M 0.375 40.675781 C 0.449219 40.675781 1.050781 37.75 1.425781 36.25 C 1.726562 34.75 2.398438 31.824219 2.398438 31.824219 C 2.398438 31.75 3.75 29.050781 4.425781 27.699219 C 5.101562 26.351562 6.449219 23.726562 6.449219 23.648438 C 6.523438 23.574219 7.800781 21.851562 8.550781 20.875 C 9.449219 19.675781 10.273438 18.398438 11.476562 16.976562 C 13.125 14.949219 15.300781 12.175781 17.550781 10.226562 C 19.800781 8.199219 22.351562 6.476562 25.050781 5.050781 C 27.675781 3.699219 30.601562 2.648438 33.523438 1.898438 C 36.449219 1.226562 39.523438 0.851562 42.601562 0.851562 C 45.601562 0.925781 48.675781 1.300781 51.601562 2.050781 C 54.449219 2.800781 57.375 3.925781 60 5.351562 C 62.699219 6.699219 65.773438 9.023438 67.5 10.523438 C 68.476562 11.425781 68.925781 12.398438 69.601562 12.925781 C 70.050781 13.375 70.574219 13.523438 70.949219 13.898438 C 71.324219 14.199219 71.550781 14.726562 71.773438 14.875 C 71.925781 14.949219 72.074219 14.875 72.148438 14.949219 C 72.226562 15.023438 72.148438 15.25 72.148438 15.398438 C 72.226562 15.476562 72.226562 15.476562 72.300781 15.550781 C 72.523438 15.851562 73.574219 16.523438 73.949219 16.976562 C 74.25 17.273438 74.175781 17.5 74.550781 17.800781 C 75.449219 18.625 79.875 19.148438 81 20.949219 C 82.199219 22.824219 80.851562 27.175781 81.074219 29.199219 C 81.226562 30.398438 81.449219 31 81.75 32.050781 C 82.125 33.324219 82.949219 34.976562 83.175781 36.101562 C 83.324219 36.925781 83.101562 37.601562 83.175781 38.273438 C 83.25 38.949219 83.625 39.550781 83.699219 40.375 C 83.773438 41.574219 83.324219 43.226562 83.25 44.648438 C 83.25 46.074219 83.550781 47.800781 83.324219 49 C 83.25 49.824219 82.800781 50.351562 82.648438 51.023438 C 82.5 51.699219 82.648438 52.449219 82.5 53.199219 C 82.273438 53.949219 81.601562 54.476562 81.375 55.675781 C 80.851562 58.226562 83.550781 65.199219 81.523438 68.648438 C 79.199219 72.625 68.625 74.425781 66.601562 77.050781 C 65.625 78.25 66.375 79.898438 65.550781 80.5 C 64.574219 81.25 62.324219 80.050781 60.300781 80.574219 C 57 81.476562 51.300781 87.25 48.226562 87.324219 C 46.425781 87.398438 45 85.226562 43.875 85.148438 C 43.125 85.148438 42.75 86.050781 42 85.976562 C 40.648438 85.824219 38.25 82.675781 36.75 82.148438 C 35.851562 81.773438 35.25 82 34.351562 81.925781 C 33.074219 81.773438 29.851562 81.476562 29.773438 81.476562 C 29.773438 81.398438 29.101562 81.101562 28.5 81.023438 C 27.375 80.800781 24.300781 81.699219 23.101562 81.023438 C 22.273438 80.574219 21.976562 78.851562 21.601562 78.550781 C 21.449219 78.398438 21.226562 78.398438 21.226562 78.398438 C 21.148438 78.324219 18.675781 76.675781 17.398438 75.851562 C 16.125 75.023438 13.648438 73.375 13.574219 73.375 C 13.5 73.300781 11.476562 71.050781 10.5 70 C 9.601562 69.023438 8.851562 67.976562 8.023438 67.375 C 7.351562 66.851562 6.148438 66.851562 5.851562 66.25 C 5.476562 65.726562 6.074219 64.675781 6 64.074219 C 5.851562 63.550781 5.476562 63.25 5.175781 62.648438 C 4.648438 61.675781 3 58.675781 3 58.675781 C 2.925781 58.601562 2.175781 55.675781 1.800781 54.25 C 1.425781 52.75 0.601562 49.898438 0.601562 49.824219 C 0.601562 49.75 0.523438 46.824219 0.523438 45.25 C 0.449219 43.75 0.375 40.675781 0.375 40.675781 " clip-rule="nonzero"/></clipPath><clipPath id="581f492d6d"><rect x="0" width="84" y="0" height="88"/></clipPath></defs><g clip-path="url(#9eb7508bec)"><path fill="#ffffff" d="M 185.332031 215.40625 C 145.597656 215.40625 113.382812 183.199219 113.382812 143.460938 C 113.382812 103.726562 145.597656 71.515625 185.332031 71.515625 C 225.066406 71.515625 257.277344 103.726562 257.277344 143.460938 C 257.277344 183.199219 225.066406 215.40625 185.332031 215.40625 Z M 172.066406 7.851562 C 92.21875 15.398438 37.53125 92.773438 51.464844 171.757812 C 65.617188 251.988281 139.589844 276.683594 176.300781 366.746094 C 179.609375 374.859375 191.035156 374.90625 194.34375 366.785156 C 235.039062 266.898438 321.566406 247.402344 321.566406 143.460938 C 321.566406 63.84375 253.269531 0.171875 172.066406 7.851562 " fill-opacity="1" fill-rule="nonzero"/></g><g clip-path="url(#e7ffa53a7e)"><g clip-path="url(#983724f55e)"><g transform="matrix(1, 0, 0, 1, 147, 231)"><g clip-path="url(#d0cbd983ce)"><g clip-path="url(#225f3d9056)"><g clip-path="url(#28f2940ac7)"><rect x="-229.5" width="540" fill="#ffffff" height="539.999987" y="-313.499998" fill-opacity="1"/></g></g></g></g></g></g><g clip-path="url(#e6615eac89)"><g clip-path="url(#271bedd661)"><g transform="matrix(1, 0, 0, 1, 141, 221)"><g clip-path="url(#581f492d6d)"><g clip-path="url(#8ffdd72f0b)"><g clip-path="url(#c4ffe20b22)"><rect x="-223.5" width="540" fill="#ffffff" height="539.999987" y="-303.499998" fill-opacity="1"/></g></g></g></g></g></g></svg>