<svg viewBox="0 0 20 14.767" overflow="visible" id="svg-380635310_1109" xmlns="http://www.w3.org/2000/svg"><g><defs><linearGradient id="svg-380635310_1109_idsu3uOe2UywNWQABTOAF_1g243491287" x1="0.49751243781094523" x2="0.5024875621890548" y1="0" y2="1"><stop offset="0" stop-color="var(--token-e588564b-e537-4574-aed4-924fc588e49b, rgb(253, 50, 28)) /* {&quot;name&quot;:&quot;Primary&quot;} */" stop-opacity="1"></stop><stop offset="1" stop-color="var(--token-379eb44a-574d-4e7e-86ef-071ba3f67cd2, rgb(255, 138, 0)) /* {&quot;name&quot;:&quot;Secondary&quot;} */" stop-opacity="1"></stop></linearGradient></defs><path d="M 0 6.768 L 4.851 6.768 C 4.768 10.303 3.765 10.704 2.506 10.819 L 2.02 10.879 L 2.02 14.767 L 2.58 14.737 C 4.225 14.644 6.043 14.348 7.256 12.85 C 8.319 11.537 8.788 9.393 8.788 6.101 L 8.788 0 L 0 0 Z M 11.212 0 L 11.212 6.768 L 15.998 6.768 C 15.915 10.303 14.945 10.704 13.686 10.819 L 13.232 10.879 L 13.232 14.767 L 13.76 14.737 C 15.404 14.644 17.239 14.348 18.452 12.85 C 19.515 11.537 20 9.393 20 6.101 L 20 0 Z" fill="url(#svg-380635310_1109_idsu3uOe2UywNWQABTOAF_1g243491287)"></path></g></svg>